<?xml version="1.0" encoding="utf-8"?>
<!-- Generator: Adobe Illustrator 13.0.0, SVG Export Plug-In . SVG Version: 6.00 Build 14576)  -->
<!DOCTYPE svg PUBLIC "-//W3C//DTD SVG 1.1//EN" "http://www.w3.org/Graphics/SVG/1.1/DTD/svg11.dtd">
<svg version="1.1" id="Layer_1" xmlns="http://www.w3.org/2000/svg" xmlns:xlink="http://www.w3.org/1999/xlink" x="0px" y="0px"
	 width="53px" height="22px" viewBox="0 0 53 22" enable-background="new 0 0 53 22" xml:space="preserve">
<rect y="0.042" fill="#005BBB" width="53" height="22"/>
<g>
	<path fill="#FFFFFF" d="M8.296,5.456h3.906c1.44,0,3.602,0.416,3.602,2.865c0,1.328-0.896,2.257-2.226,2.497v0.032
		c1.521,0.144,2.562,1.168,2.562,2.545c0,2.817-2.529,3.233-3.938,3.233H8.296V5.456z M10.537,9.969h0.912
		c0.944,0,2.113-0.208,2.113-1.36c0-1.297-1.137-1.393-2.161-1.393h-0.864V9.969z M10.537,14.867h1.057
		c1.04,0,2.305-0.256,2.305-1.553c0-1.457-1.185-1.681-2.305-1.681h-1.057V14.867z"/>
	<path fill="#FFFFFF" d="M18.072,5.456h6.595v1.761h-4.354v2.753h3.985v1.761h-3.985v3.137h4.386v1.761h-6.627V5.456z"/>
	<path fill="#FFFFFF" d="M29.001,7.216H25.8V5.456h8.644v1.761h-3.201v9.412h-2.241V7.216z"/>
	<path fill="#FFFFFF" d="M37.789,5.456h2.528l4.387,11.172h-2.481l-0.96-2.562h-4.53l-0.977,2.562h-2.32L37.789,5.456z
		 M39.021,7.696h-0.032l-1.616,4.61h3.265L39.021,7.696z"/>
</g>
</svg>
